<svg xmlns="http://www.w3.org/2000/svg" viewBox="0 0 32 32" width="32" height="32">
  <defs>
    <filter id="shadow" x="-20%" y="-20%" width="140%" height="140%">
      <feDropShadow dx="0" dy="1" stdDeviation="1" flood-color="#000" flood-opacity="0.3"/>
    </filter>
  </defs>
  <g filter="url(#shadow)">
    <path d="M8 20 L8 13 Q8 4 16 4 Q24 4 24 13 L24 20" fill="#fff" stroke="#FEC021" stroke-width="1.2"/>
    <path d="M8 13 Q8 6 16 6 Q24 6 24 13" fill="#fff" stroke="#FEC021" stroke-width="1.2"/>
    <path d="M6 20 L26 20 L26 22 Q26 24 24 24 L8 24 Q6 24 6 22 Z" fill="#FEC021"/>
    <path d="M10 24 L22 24 Q23 24 23 25 L23 26 Q23 27 22 27 L10 27 Q9 27 9 26 L9 25 Q9 24 10 24 Z" fill="#fff" stroke="#FEC021" stroke-width="1"/>
  </g>
</svg>
